# xmcd CD database file
#
# Track frame offsets:
#	150
#	17940
#	64395
#	86750
#	109340
#	158720
#	177720
#	193692
#
# Disc length: 3242 seconds
#
# Revision: 0
# Processed by: cddbd v1.5.2PL0 Copyright (c) Steve Scherf et al.
# Submitted via: CDex 1.51
#
DISCID=720ca808
DTITLE=Roscoe Mitchell - MORE CUTOUTS
DYEAR=1980
DGENRE=Jazz
TTITLE0=SONG FOR THE LITTLE FEET - TAKE A
TTITLE1=MIX
TTITLE2=MORE COTOUTS
TTITLE3=FANFARE FOR TALIB
TTITLE4=ROUND TWO
TTITLE5=SONG FOR THE LITTLE FEET - TAKE B
TTITLE6=MORE CUTOUTS - Alternate
TTITLE7=ROUND TWO - Alternate
EXTD=YEAR: 1980
EXTT0=
EXTT1=
EXTT2=
EXTT3=
EXTT4=
EXTT5=
EXTT6=
EXTT7=
PLAYORDER=
